<?xml version="1.0" encoding="utf-8"?>
<!-- Generator: Adobe Illustrator 25.4.1, SVG Export Plug-In . SVG Version: 6.00 Build 0)  -->
<svg version="1.1" id="Capa_1" xmlns="http://www.w3.org/2000/svg" xmlns:xlink="http://www.w3.org/1999/xlink" x="0px" y="0px"
	 viewBox="0 0 791.4 255.76" style="enable-background:new 0 0 791.4 255.76;" xml:space="preserve">
<style type="text/css">
	.st0{fill:#40465E;stroke:#EDEDED;stroke-width:0.75;stroke-miterlimit:10;}
	.st1{fill:#1D71B8;stroke:#000000;stroke-width:0.25;stroke-miterlimit:10;}
	.st2{fill:none;stroke:#000000;stroke-width:6;stroke-miterlimit:10;}
	.st3{fill:#878787;}
</style>
<path class="st0" d="M751.06,250.25H37.95c-18.94,0-34.3-15.36-34.3-34.3V39.02c0-18.94,15.36-34.3,34.3-34.3h713.11
	c18.94,0,34.3,15.36,34.3,34.3v176.92C785.36,234.89,770,250.25,751.06,250.25z"/>
<g>
	<path class="st1" d="M740.38,88.25c-0.64-2.39-1.43-4.71-2.35-6.94l14.71-9.58l-11.53-17.71l-14.71,9.58
		c-3.4-3.55-7.23-6.63-11.38-9.18l6.27-16.41l-19.74-7.55l-6.27,16.39c-4.75-0.86-9.65-1.13-14.61-0.74l-4.57-16.95l-20.4,5.49
		l4.57,16.95c-4.48,2.15-8.59,4.85-12.26,7.98l-13.65-11.03L621.19,65l13.66,11.04c-2.31,4.29-4.08,8.88-5.23,13.65l-17.53-0.9
		l-1.08,21.1l17.53,0.9c0.33,2.39,0.81,4.79,1.45,7.18c0.64,2.39,1.43,4.71,2.35,6.94l-14.71,9.58l11.53,17.71l14.71-9.58
		c3.4,3.55,7.23,6.63,11.38,9.18l-6.27,16.41l19.74,7.55l6.27-16.39c4.75,0.86,9.65,1.13,14.61,0.74l4.57,16.95l20.4-5.49
		L710,154.61c4.48-2.15,8.59-4.85,12.26-7.98l13.65,11.03l13.28-16.44l-13.66-11.04c2.31-4.29,4.08-8.88,5.23-13.65l17.53,0.9
		l1.08-21.1l-17.53-0.9C741.51,93.04,741.03,90.65,740.38,88.25z M668.46,62.43l6.33,23.5c-6.69,4.05-10.53,11.75-9.53,19.67
		l-23.18,6.24C637.86,91.09,649.1,70.36,668.46,62.43z M691.16,146.7c-19.42,2.68-38.33-7.93-46.2-25.79l23.7-6.38
		c3.66,5.3,9.69,8.56,16.17,8.68L691.16,146.7z M687.14,110.36c-4,1.08-8.12-1.29-9.2-5.3c-1.08-4,1.29-8.12,5.3-9.2
		c4-1.08,8.12,1.29,9.2,5.3C693.52,105.17,691.15,109.29,687.14,110.36z M701.92,143.8l-6.33-23.5c5.54-3.35,9.13-9.21,9.63-15.62
		l23.7-6.38C731.08,117.7,720.06,136.37,701.92,143.8z M703.67,95.25c-3.12-7.35-10.3-12.09-18.12-12.22l-6.33-23.5
		c20.72-2.86,40.85,9.41,47.63,29.48L703.67,95.25z"/>
	<path class="st2" d="M713.26,195.6h-56.09c-4.1,0-8.12-0.85-11.47-2.48c-21.68-10.59-33.49-45.77-33.49-47.49l0,0
		c0-1.9,2.21-3.44,4.95-3.44h125.31c2.73,0,4.95,1.54,4.95,3.44l-7.03,34.87C737.97,189.59,719.49,195.6,713.26,195.6z"/>
	<circle class="st2" cx="660.98" cy="217.8" r="10.17"/>
	<circle class="st2" cx="702.93" cy="217.8" r="10.17"/>
	<line class="st2" x1="620.68" y1="165.78" x2="744.45" y2="165.78"/>
	<line class="st2" x1="685.19" y1="195.92" x2="685.19" y2="142.19"/>
	<line class="st2" x1="716.13" y1="195.92" x2="716.13" y2="142.19"/>
	<line class="st2" x1="651.22" y1="195.76" x2="651.22" y2="142.03"/>
	<polyline class="st2" points="620.68,166.29 599.93,113.77 572.22,113.67 	"/>
</g>
<path class="st3" d="M112.98,37.93c0,0.51-0.48,0.8-1.44,0.86c-2.87,0.13-4.7,0.46-5.46,1.01c-0.77,0.54-1.63,2.15-2.59,4.83
	c-0.58,1.47-1.44,3.7-2.59,6.7c-0.83,2.49-2.14,6.32-3.93,11.49c-0.9,2.42-2.25,6.1-4.05,11.01L88.2,86.96
	c-3.28,9.28-5.12,14.62-5.5,16.02c-0.26,0.83-0.54,1.25-0.86,1.25c-0.39,0-0.7-0.3-0.96-0.91c-0.26-0.61-0.99-2.79-2.2-6.56
	c-1.6-4.98-3.93-11.18-7-18.58l-3.26-7.85c-6.38,13.67-10.97,24.52-13.78,32.57c-0.32,0.89-0.67,1.34-1.05,1.34
	c-0.26,0-1.05-1.7-2.4-5.09L39.5,68.63c-2.81-7.68-6.42-16.82-10.83-27.44c-0.45-1.15-1.18-1.85-2.2-2.11
	c-0.57-0.19-1.69-0.29-3.35-0.29c-1.66,0-2.49-0.29-2.49-0.86c0-0.51,0.45-0.77,1.34-0.77c-0.06,0,0.99,0,3.16,0
	c2.23,0,4.15,0,5.75,0h3.64h9.68c0.32,0,0.86,0,1.63,0c0.64,0,1.09,0,1.34,0c0.83,0,1.25,0.32,1.25,0.95c0,0.57-1.02,0.82-3.07,0.76
	c-1.09,0-1.63,0.29-1.63,0.86c0,0.25,0.06,0.54,0.19,0.86c1.4,3.87,3.53,9.65,6.4,17.32l9.84,25.32l6.71-15.34
	c-0.94-2.79-2.76-7.81-5.45-15.05c-0.51-1.13-1.22-2.87-2.12-5.2c-0.19-0.57-0.51-1.45-0.96-2.65c-1.09-2.9-1.99-4.64-2.7-5.24
	c-0.71-0.6-2.18-0.9-4.43-0.9c-0.64-0.06-0.96-0.35-0.96-0.85c0-0.57,0.61-0.85,1.82-0.85c-0.19,0,0.14,0,1.01,0s2.28,0,4.26,0
	h33.44c1.21-0.06,1.82,0.22,1.82,0.86c0,0.51-0.48,0.76-1.44,0.76c-4.54-0.06-7.15,0.7-7.86,2.29c-1.09,1.72-3.35,6.58-6.8,14.58
	c2.21,5.74,5.75,14.83,10.62,27.26c1.03-2.61,2.13-5.51,3.29-8.7c1.03-2.68,2.7-7.24,5.01-13.69c1.48-4.28,2.73-7.75,3.76-10.44
	c1.73-4.53,2.6-7.47,2.6-8.81c0-1.28-0.64-2.07-1.92-2.39c-0.45-0.13-1.6-0.19-3.45-0.19c-1.02,0-1.53-0.25-1.53-0.77
	c0-0.51,0.48-0.77,1.44-0.77h7.57c3.26,0.06,5.72,0.06,7.38,0h0.77C112.66,37.16,112.98,37.42,112.98,37.93z M80.12,41.36
	c0-1.71-1.53-2.57-4.6-2.57c-3.13,0-4.69,0.57-4.69,1.71c0,1.59,1.53,5.65,4.6,12.18C78.56,46.22,80.12,42.44,80.12,41.36z"/>
<path class="st3" d="M240.83,52.4c0,5.49-2.05,9.92-6.13,13.27c-4.09,3.35-9.52,5.03-16.29,5.03c-1.72,0-4.15-0.22-7.28-0.67v24.6
	c0,3.52,0.24,5.59,0.72,6.2c0.48,0.61,2.25,0.98,5.32,1.1c1.72-0.06,2.59,0.21,2.59,0.82c0,0.54-0.51,0.81-1.53,0.81h-1.44
	c-0.32,0-1.81,0-4.46,0c-2.65,0-5.38,0-8.19,0h-11.21c-2.11,0-3.32-0.06-3.64-0.18c-0.32-0.12-0.48-0.3-0.48-0.54
	c0-0.48,0.51-0.72,1.53-0.72c3.13-0.06,5-0.35,5.61-0.86c0.61-0.51,0.91-1.99,0.91-4.42V47.45c0-4.1-0.16-6.56-0.48-7.4
	c-0.32-0.83-1.95-1.25-4.89-1.25c-1.72,0-2.59-0.26-2.59-0.77c0-0.58,0.8-0.87,2.4-0.87l27.4-0.1c6.71,0,11.72,1.02,15.04,3.07
	C238.47,43.07,240.83,47.16,240.83,52.4z M225.4,52.92c0-9.48-2.97-14.22-8.91-14.22c-3.58,0-5.36,1.57-5.36,4.71v25.18
	c2.62,0,4.41-0.1,5.36-0.29c1.85-0.32,3.45-1.06,4.79-2.21C224.03,63.66,225.4,59.27,225.4,52.92z"/>
<path class="st3" d="M303.97,99.63c0,3.58-2.33,5.36-6.99,5.36c-5.88,0-10.57-1.86-14.08-5.57c-2.75-2.88-4.31-5.96-4.69-9.22
	l-0.96-7.88c-0.64-4.99-1.81-8.49-3.5-10.47c-1.69-1.99-4.42-2.94-8.19-2.88v21.81c0,5.06,0.03,7.78,0.1,8.17
	c0,1.09,0.45,1.84,1.34,2.26c0.89,0.42,2.59,0.62,5.08,0.62c1.53,0,2.3,0.29,2.3,0.86c0,0.51-0.38,0.77-1.15,0.77h-9.29h-1.53
	c-1.15,0-2.24,0-3.26,0h-6.9c-0.64,0-1.37,0-2.2,0c-0.7,0-1.15,0-1.34,0h-4.41c-0.9,0-1.34-0.23-1.34-0.68
	c0-0.51,1.31-0.83,3.93-0.94c2.17-0.13,3.45-0.64,3.83-1.54c0.19-0.45,0.29-1.79,0.29-4.04V46.77c0-3.33-0.06-5.3-0.19-5.91
	c-0.13-0.61-0.54-1.07-1.25-1.39c-0.9-0.38-2.33-0.58-4.31-0.58c-1.41,0-2.11-0.29-2.11-0.87c0-0.45,0.29-0.72,0.86-0.82
	c0.57-0.1,2.11-0.15,4.6-0.15h1.72c1.15,0,2.27,0,3.35,0h3.16c0.06,0,0.73,0,2.01,0c1.21,0,2.36,0,3.45,0h5.56
	c8.94,0,15.04,0.7,18.3,2.11c2.55,1.09,4.6,2.75,6.13,4.98c1.53,2.24,2.3,4.7,2.3,7.38c0,6.13-3.19,10.67-9.58,13.6
	c-2.81,1.28-6.96,2.24-12.45,2.88l-0.1,0.57c6.96,0.45,12.01,2.28,15.14,5.51c3.13,3.23,5.01,8.45,5.65,15.67
	c0.51,5.75,1.31,9.34,2.4,10.78c1.09,1.44,2.2,2.16,3.35,2.16c0.96,0,1.44-0.25,1.44-0.77c0-0.25-0.37-0.61-1.1-1.05
	c-0.74-0.45-1.1-1.09-1.1-1.92c0-1.72,0.96-2.59,2.87-2.59C303.01,96.37,303.97,97.46,303.97,99.63z M279.73,51.25
	c0-8.24-3.26-12.36-9.77-12.36c-2.11,0-3.42,0.7-3.93,2.11c-0.32,0.9-0.48,4.38-0.48,10.44v15.9c4.98,0.06,8.59-1.18,10.83-3.74
	C278.61,61.05,279.73,56.93,279.73,51.25z"/>
<path class="st3" d="M368.06,70.31c0,9.58-2.99,17.68-8.96,24.29c-5.97,6.61-13.3,9.92-21.99,9.92c-8.5,0-15.78-3.35-21.84-10.06
	c-6.07-6.71-9.1-14.79-9.1-24.24c0-9.71,3.02-17.82,9.05-24.34c6.04-6.52,13.52-9.77,22.47-9.77c8.62,0,15.84,3.27,21.65,9.82
	C365.15,52.48,368.06,60.61,368.06,70.31z M351.2,71.8c0-12.69-1.5-22.07-4.5-28.13c-1.98-3.95-5.11-5.93-9.39-5.93
	c-4.34,0-7.81,2.77-10.39,8.32c-2.59,5.55-3.88,12.98-3.88,22.29c0,13.52,2.3,23.63,6.9,30.32c1.92,2.81,4.7,4.21,8.34,4.21
	c4.22,0,7.19-2.01,8.91-6.03C349.86,90.61,351.2,82.26,351.2,71.8z"/>
<path class="st3" d="M436.85,69.83c0,7.28-1.66,13.57-4.98,18.87c-3.45,5.56-8.46,9.61-15.04,12.17
	c-4.47,1.72-11.15,2.59-20.02,2.59c-0.13,0-0.83,0-2.11,0c-1.28,0-3.13,0-5.56,0h-3.45c-0.13,0-2.2,0-6.23,0h-6.04
	c-0.96,0-1.44-0.25-1.44-0.77c0-0.64,0.89-0.92,2.68-0.86c2.75,0.06,4.41-0.41,4.98-1.44c0.25-0.45,0.38-2.4,0.38-5.84V45.79
	c0-2.81-0.19-4.53-0.57-5.17c-0.64-1.15-2.27-1.69-4.89-1.63c-1.41,0.07-2.11-0.25-2.11-0.96c0-0.58,0.45-0.86,1.34-0.86h1.72
	c3.83,0,7.54,0.03,11.11,0.1c5.11,0.07,9.07,0.1,11.88,0.1c11.62,0,20.53,2.4,26.73,7.19C432.98,50.55,436.85,58.98,436.85,69.83z
	 M420.27,69.88c0-10.55-1.57-18.28-4.69-23.17c-3.13-4.89-8.05-7.34-14.75-7.34c-2.43,0-4.02,0.26-4.79,0.77
	c-1.02,0.64-1.53,2.14-1.53,4.51v49.13c0,4.22,0.25,6.56,0.77,7c0.77,0.7,2.46,1.06,5.08,1.06
	C413.63,101.83,420.27,91.18,420.27,69.88z"/>
<path class="st3" d="M500.18,37.79c0,0.48-1.09,0.75-3.26,0.82c-2.68,0.06-4.31,0.51-4.89,1.35c-0.19,0.26-0.32,0.8-0.38,1.64v40.7
	c0,15.14-7.22,22.71-21.65,22.71c-7.41,0-13.16-2.27-17.24-6.8c-3.07-3.38-4.6-9.39-4.6-18.01V43.39c0-2.04-0.32-3.29-0.96-3.74
	c-0.64-0.45-2.65-0.8-6.04-1.05c-0.7-0.06-1.05-0.32-1.05-0.77c0-0.58,0.57-0.86,1.72-0.86h0.77c0.58,0,1.05,0,1.44,0h5.94
	c5.62,0.06,9.77,0.06,12.46,0c3.58,0,4.98,0,4.21,0h2.01c1.09,0,1.63,0.32,1.63,0.96c0,0.58-0.99,0.86-2.97,0.86
	c-2.81,0-4.31,0.51-4.5,1.53c-0.13,0.7-0.19,1.38-0.19,2.02v35.89c0,5.18,0.1,8.47,0.29,9.88c0.45,4.16,1.63,7.17,3.55,9.02
	c2.36,2.3,5.46,3.45,9.29,3.45c4.34,0,7.54-1.4,9.58-4.21c2.49-3.39,3.74-9.45,3.74-18.2V46.55c0-0.58,0-1.31,0-2.2
	c0-0.89,0-1.44,0-1.63c0-1.66-0.47-2.74-1.42-3.26c-0.63-0.38-1.86-0.58-3.7-0.58c-2.27-0.06-3.41-0.45-3.41-1.15
	c0-0.51,0.45-0.77,1.34-0.77c0.96,0,2.36,0.05,4.22,0.14c1.85,0.1,3.26,0.14,4.22,0.14c0.06,0,0.61-0.1,1.63-0.29
	c1.09,0,2.07,0,2.97,0h2.3C499.19,36.97,500.18,37.25,500.18,37.79z"/>
<path class="st3" d="M557.18,82.39l-0.1,1.63c0,0.32-0.16,2.33-0.48,6.04c-0.26,2.81-0.38,4.98-0.38,6.52c0,1.92,0.03,3.51,0.1,4.79
	c0.06,0.45,0.1,0.99,0.1,1.63c0,0.7-0.16,1.05-0.48,1.05c-0.32,0-0.67-0.32-1.05-0.96c-1.41-2.3-2.91-3.8-4.5-4.5
	c-4.79,4.09-9.93,6.13-15.42,6.13c-8.37,0-15.75-3.13-22.13-9.39c-6.77-6.64-10.16-15.01-10.16-25.1c0-9.77,3.05-17.93,9.15-24.48
	c6.1-6.55,13.72-9.82,22.85-9.82c4.22,0,7.98,0.96,11.31,2.87c1.92,1.09,3.32,1.63,4.22,1.63c1.34,0,2.59-0.61,3.74-1.82
	c0.83-0.9,1.34-1.34,1.53-1.34c0.25,0,0.38,0.22,0.38,0.67c0,0.19-0.03,0.48-0.1,0.86c-0.38,2.17-0.58,4.86-0.58,8.05
	c0,0.32,0.03,1.63,0.1,3.93c0,2.24,0,3.74,0,4.5v2.11c0,1.15-0.32,1.72-0.96,1.72c-0.51,0-1.02-1.25-1.53-3.74
	c-2.3-11.5-7.57-17.25-15.81-17.25c-6.52,0-11.24,4.22-14.18,12.65c-2.05,5.75-3.07,12.65-3.07,20.69c0,11.94,2.43,20.7,7.28,26.25
	c2.55,2.94,5.91,4.41,10.06,4.41c9.01,0,14.91-6,17.72-18.01c0.45-1.98,0.96-2.97,1.53-2.97C556.96,81.14,557.24,81.56,557.18,82.39
	z"/>
<path class="st3" d="M617.16,54.89c0,0.51-0.22,0.76-0.67,0.76c-0.7,0-1.34-1.23-1.92-3.69c-1.15-4.86-2.75-8.18-4.79-9.94
	c-2.05-1.77-5.3-2.65-9.77-2.65c-1.72,0-3.23,0-4.5,0v58.25c0.06,1.6,0.52,2.62,1.36,3.07c0.84,0.45,3.1,0.83,6.78,1.15
	c0.71,0.06,1.07,0.35,1.07,0.86c0,0.64-0.51,0.96-1.53,0.96c-0.19,0-0.67-0.03-1.44-0.1c-0.96-0.06-1.76-0.1-2.4-0.1l-9.87-0.29
	l-16.29,0.48c-0.9,0-1.34-0.26-1.34-0.77c0-0.38,0.13-0.61,0.38-0.67c0.25-0.06,1.31-0.13,3.16-0.19c3.51-0.13,5.4-0.96,5.65-2.5
	c0.13-0.83,0.19-7.34,0.19-19.51V39.37c-0.7,0-1.53,0-2.49,0c-5.11,0-8.83,0.94-11.16,2.81c-2.33,1.87-3.85,5.19-4.55,9.95
	c-0.45,2.79-1.02,4.19-1.72,4.19c-0.57,0-0.86-0.38-0.86-1.15c0-0.51,0.13-2.27,0.38-5.27c0.51-6.26,0.83-10.54,0.96-12.84h1.44
	h6.99c0.19,0,2.41,0.05,6.66,0.14c4.25,0.1,9.66,0.14,16.24,0.14c3.64,0,6.9-0.02,9.77-0.07c2.87-0.05,5.49-0.07,7.86-0.07
	c2.11,0,3.7-0.05,4.79-0.14c0.19,4.13,0.67,9.4,1.44,15.82C617.09,53.97,617.16,54.64,617.16,54.89z"/>
<path class="st3" d="M142.84,210.06c0,0.79-0.79,1.18-2.36,1.18h-0.83c-1.73,0-4.78,0-9.14,0c-4.36,0-7.61,0-9.73,0
	c-0.87,0-2.67,0-5.43,0c-2.67,0-6.29,0-10.85,0h-2.95c-1.1,0-1.65-0.33-1.65-1c0-0.67,0.55-1,1.65-1h4.01
	c3.62,0.08,5.82-0.55,6.6-1.89c0.24-0.39,0.35-2.75,0.35-7.09v-64.02c-2.55,6.53-5.89,16.91-10.02,31.13l-10.26,36.08
	c-1.26,4.4-2.28,6.6-3.07,6.6c-0.87,0-1.65-1.1-2.36-3.3c-0.24-0.71-2.75-8.26-7.55-22.64c-1.81-5.42-6.72-20.64-14.74-45.64v61.17
	c0,3.55,0.04,5.66,0.12,6.33c0.08,0.67,0.43,1.24,1.06,1.71c1.18,1.02,3.18,1.5,6.01,1.42c2.83-0.08,4.24,0.36,4.24,1.3
	c0,0.55-0.59,0.83-1.77,0.83l-10.5-0.47c-1.81-0.08-3.89-0.03-6.25,0.16c-3.14,0.21-5.27,0.31-6.37,0.31
	c-1.65,0-2.48-0.35-2.48-1.06c0-0.63,0.67-0.94,2-0.94c3.14,0,5.03-0.04,5.66-0.12c2.44-0.31,3.85-1.22,4.25-2.72
	c0.24-0.94,0.35-2.91,0.35-5.9v-56.33c0-6.3-0.37-9.98-1.12-11.04c-0.75-1.06-3.56-1.59-8.43-1.59c-1.26,0-1.89-0.36-1.89-1.06
	c0-0.79,0.67-1.14,2-1.06h3.17h22.21c0.24,0,0.67,0.05,1.29,0.15c6.71,21.73,12.4,39.78,17.05,54.14l15.93-54.3l2.48,0.01h15.58
	c0.24,0,0.9,0,2,0c1.18,0,2.24,0,3.19,0h5.43c1.57,0,2.36,0.34,2.36,1c0,0.75-0.47,1.08-1.42,1H138c-3.3-0.16-5.52,0.16-6.66,0.94
	c-1.14,0.79-1.71,2.32-1.71,4.6c0,0.63,0,2.01,0,4.13c0,2.12,0,11.99,0,29.6v32.9c0,2.83,0.74,4.46,2.22,4.89
	c1.48,0.43,3.68,0.61,6.6,0.53C141.38,208.92,142.84,209.27,142.84,210.06z"/>
<path class="st3" d="M223.26,209.7c0,0.63-0.29,1-0.88,1.12c-0.59,0.12-2.1,0.18-4.54,0.18c-0.63,0-2.4-0.04-5.31-0.12
	c-5.82-0.16-9.83-0.24-12.03-0.24c-2.59,0-4.88,0.04-6.84,0.12c-3.93,0.16-6.6,0.23-8.02,0.23c-2.12,0-3.18-0.39-3.18-1.18
	c0-0.79,2.24-1.22,6.72-1.3c1.1,0,1.93-0.08,2.48-0.24c1.26-0.16,1.89-0.63,1.89-1.41c0-0.39-0.47-2.04-1.42-4.95l-2.48-7.67
	c-0.47-1.73-1.49-4.91-3.07-9.55h-2.12h-9.2c-3.3-0.08-6.8-0.04-10.5,0.12c-0.71,1.57-2.05,5.11-4.01,10.61l-2.59,7.67
	c-0.39,1.18-0.59,2.12-0.59,2.83c0,1.34,0.86,2.2,2.59,2.59c0.39,0.08,2.32,0.24,5.78,0.47c1.1,0.07,1.65,0.41,1.65,1
	c0,0.67-0.71,1-2.12,1h-19.46c-0.47,0-0.98,0-1.53,0c-1.1,0-1.65-0.39-1.65-1.18c0-0.47,1.22-0.79,3.66-0.94
	c3.14-0.16,5.15-0.75,6.01-1.77c0.86-1.02,2.28-4.32,4.24-9.91c1.49-3.93,3.66-9.75,6.49-17.45l14.27-39.27
	c0.71-1.73,1.69-4.44,2.95-8.14c0.86-2.67,1.53-4.01,2-4.01c0.47,0,1.34,1.81,2.6,5.42c1.57,4.64,8.49,22.96,20.75,54.96
	c1.57,4.09,3.15,8.26,4.72,12.5c1.34,3.62,2.67,5.82,4.01,6.6c1.02,0.63,3.46,0.9,7.31,0.83
	C222.79,208.64,223.26,208.99,223.26,209.7z M185.76,182.11c-0.08-0.24-0.35-0.98-0.82-2.24c-3.16-9.11-5.45-15.52-6.87-19.21
	c-0.38-1.03-0.9-2.53-1.58-4.51l-0.79-2.09c-1.41,3.38-3.13,8.06-5.17,14.02c-2.27,6.68-3.92,11.36-4.93,14.03c0.71,0,1.57,0,2.59,0
	c0.94,0,1.81,0,2.59,0h6.6C179.2,182.11,181.99,182.11,185.76,182.11z"/>
<path class="st3" d="M301.21,130.57c0,0.4-0.29,0.63-0.87,0.71c-0.58,0.08-2.64,0.2-6.18,0.35c-2.08,0.08-3.27,0.51-3.58,1.3
	c-0.31,0.47-0.43,2.99-0.35,7.55v13.68c0,9.12,0,21.03,0,35.73v20.05c0,1.34-0.28,2.01-0.83,2.01c-0.87,0-6.59-6.5-17.16-19.52
	c-10.57-13.01-22.19-27.89-34.85-44.63v8.73c0,2.99,0,5.58,0,7.78c0,2.2,0,3.54,0,4.01v36.68c0,1.65,0.52,2.67,1.55,3.07
	c1.67,0.63,3.61,0.94,5.84,0.94c2.62,0,4.09,0.2,4.41,0.59c0.08,0.08,0.12,0.24,0.12,0.47c0,0.63-0.59,0.94-1.77,0.94
	c-0.71,0-1.3-0.04-1.77-0.12c-4.72-0.16-7.67-0.24-8.84-0.24c-2.75,0-6.37,0.08-10.85,0.24c-2.2,0.08-3.14,0.12-2.83,0.12
	c-1.18,0-1.77-0.31-1.77-0.94c0-0.55,1.73-0.94,5.19-1.18c4.01-0.31,6.33-0.94,6.96-1.88c0.39-0.63,0.59-3.45,0.59-8.48v-48.39
	c0-4.95-0.08-7.93-0.24-8.95c-0.47-3.45-1.85-5.97-4.13-7.54c-1.73-1.18-4.95-1.84-9.67-2c-1.26-0.08-1.89-0.46-1.89-1.12
	c0-0.75,0.55-1.12,1.65-1.12c0.47,0,2.16,0.08,5.07,0.24c1.42,0.08,3.54,0.12,6.37,0.12c5.82,0,10.53-0.12,14.15-0.35l41.39,53.3
	v-46.8c0-1.89-0.31-3.09-0.94-3.6c-0.63-0.51-1.97-0.81-4.01-0.89l-5.07-0.24c-0.94-0.08-1.42-0.35-1.42-0.83
	c0-0.63,0.71-0.94,2.12-0.94h2.59c0.47,0,1.26,0,2.36,0c1.02,0,1.93,0,2.71,0c7.94,0,12.58,0.04,13.92,0.12
	C300.54,129.59,301.21,129.94,301.21,130.57z"/>
<path class="st3" d="M381.05,209.7c0,0.63-0.29,1-0.88,1.12c-0.59,0.12-2.1,0.18-4.54,0.18c-0.63,0-2.4-0.04-5.31-0.12
	c-5.82-0.16-9.83-0.24-12.03-0.24c-2.59,0-4.88,0.04-6.84,0.12c-3.93,0.16-6.6,0.23-8.02,0.23c-2.12,0-3.18-0.39-3.18-1.18
	c0-0.79,2.24-1.22,6.72-1.3c1.1,0,1.93-0.08,2.48-0.24c1.26-0.16,1.89-0.63,1.89-1.41c0-0.39-0.47-2.04-1.42-4.95l-2.48-7.67
	c-0.47-1.73-1.49-4.91-3.07-9.55h-2.12h-9.2c-3.3-0.08-6.8-0.04-10.5,0.12c-0.71,1.57-2.05,5.11-4.01,10.61l-2.59,7.67
	c-0.39,1.18-0.59,2.12-0.59,2.83c0,1.34,0.86,2.2,2.59,2.59c0.39,0.08,2.32,0.24,5.78,0.47c1.1,0.07,1.65,0.41,1.65,1
	c0,0.67-0.71,1-2.12,1H303.8c-0.47,0-0.98,0-1.53,0c-1.1,0-1.65-0.39-1.65-1.18c0-0.47,1.22-0.79,3.66-0.94
	c3.14-0.16,5.15-0.75,6.01-1.77c0.86-1.02,2.28-4.32,4.24-9.91c1.49-3.93,3.66-9.75,6.49-17.45l14.27-39.27
	c0.71-1.73,1.69-4.44,2.95-8.14c0.86-2.67,1.53-4.01,2-4.01c0.47,0,1.34,1.81,2.59,5.42c1.57,4.64,8.49,22.96,20.75,54.96
	c1.57,4.09,3.15,8.26,4.72,12.5c1.34,3.62,2.67,5.82,4.01,6.6c1.02,0.63,3.46,0.9,7.31,0.83
	C380.57,208.64,381.05,208.99,381.05,209.7z M343.55,182.11c-0.08-0.24-0.35-0.98-0.82-2.24c-3.16-9.11-5.45-15.52-6.87-19.21
	c-0.38-1.03-0.9-2.53-1.58-4.51l-0.79-2.09c-1.41,3.38-3.13,8.06-5.17,14.02c-2.27,6.68-3.92,11.36-4.93,14.03c0.71,0,1.57,0,2.6,0
	c0.94,0,1.81,0,2.59,0h6.6C336.98,182.11,339.77,182.11,343.55,182.11z"/>
<path class="st3" d="M460.29,185.59c0,0.75-1.48,1.08-4.43,1c-3.5-0.08-5.36,0.7-5.6,2.35c-0.16,0.94-0.23,4.03-0.23,9.27
	c0,1.8,0,3.4,0,4.81c-9.36,6.34-18.28,9.51-26.77,9.51c-11.16,0-20.5-3.93-28.01-11.79c-7.51-7.86-11.26-17.65-11.26-29.36
	c0-12.42,3.85-22.76,11.56-31.02c7.7-8.26,17.37-12.38,29.01-12.38c4.79,0,9.75,1.18,14.86,3.54c1.89,0.87,3.18,1.3,3.89,1.3
	c1.26,0,2.32-0.94,3.18-2.83c0.39-0.94,0.83-1.41,1.3-1.41c0.55,0,0.83,0.39,0.83,1.18c0,0.16-0.12,1.73-0.35,4.72
	c-0.08,0.94-0.12,3.18-0.12,6.72c0,2.67,0.16,6.76,0.47,12.26c0,1.49-0.39,2.24-1.18,2.24c-1.1,0-1.85-1.57-2.24-4.72
	c-0.94-6.92-3.22-12.38-6.84-16.39c-2.67-2.91-6.41-4.36-11.2-4.36c-14.86,0-22.29,13.21-22.29,39.62c0,16.43,2.45,27.87,7.34,34.32
	c3.08,4.09,7.18,6.13,12.31,6.13c6.47,0,9.71-4.09,9.71-12.26c0-6.13-0.26-9.57-0.78-10.32c-0.52-0.75-1.85-1.12-4-1.12h-2.98
	c-1.67,0-2.51-0.35-2.51-1.06c0-0.71,0.67-1.06,2-1.06c2.75,0,6.21,0.04,10.38,0.12h7.55c1.49,0,3.87,0,7.13,0c3.26,0,5.37,0,6.31,0
	h1.53C459.82,184.58,460.29,184.92,460.29,185.59z"/>
<path class="st3" d="M525.97,190.24c0,0.16-0.04,3.81-0.12,10.97c-0.08,3.77-0.14,6.49-0.18,8.14c-0.04,1.65-0.06,2.44-0.06,2.36
	c-20.76-0.94-38.92-1.22-54.48-0.83h-9.91c-1.41,0-2.12-0.3-2.12-0.89c0-0.44,0.18-0.7,0.53-0.78c0.35-0.07,1.55-0.19,3.6-0.33
	c3.69-0.24,5.7-1.3,6.01-3.18c0.16-1.02,0.24-2.16,0.24-3.42v-59.7c0-4.71-0.04-7.3-0.12-7.77c-0.08-1.25-0.47-2.12-1.18-2.59
	c-0.71-0.47-2.16-0.71-4.36-0.71c-2.44,0-3.66-0.35-3.66-1.06c0-0.79,1.08-1.18,3.24-1.18c2.16,0,5.17-0.04,9.02-0.12
	c14.46-0.31,26.3-0.39,35.5-0.24h8.02c1.73,0,3.85-0.12,6.37-0.35l1.06,12.85c0.39,4.09,0.59,6.6,0.59,7.55
	c0,0.79-0.39,1.18-1.18,1.18c-0.79,0-1.3-1.02-1.54-3.07c-0.71-5.42-2.9-9.38-6.57-11.85c-3.67-2.48-9.09-3.71-16.26-3.71
	c-2.21,0-6,0.12-11.36,0.35v34.79c8.69,0.08,14.16-0.53,16.41-1.83c2.25-1.3,3.77-4.66,4.56-10.08c0.39-2.91,0.99-4.36,1.78-4.36
	c0.71,0,1.07,0.71,1.07,2.12c0,1.41-0.12,4.32-0.35,8.73c-0.08,1.49-0.12,3.5-0.12,6.01c0,6.76,0.08,11.87,0.24,15.33
	c0.08,0.47,0.12,1.06,0.12,1.77c0,0.94-0.36,1.41-1.07,1.41c-0.55,0-0.91-0.18-1.07-0.53c-0.16-0.36-0.39-1.63-0.71-3.83
	c-0.79-5.58-1.88-9.06-3.26-10.44c-1.38-1.38-4.56-2.07-9.54-2.07h-8.06v39.62h7.57c8.68-0.16,13.96-0.35,15.85-0.59
	c2.36-0.31,4.65-1.18,6.86-2.6c1.97-1.57,3.33-3.26,4.08-5.07c0.75-1.81,1.56-5.15,2.43-10.02c0.24-1.18,0.63-1.77,1.18-1.77
	C525.66,188.47,525.97,189.06,525.97,190.24z"/>
<path class="st3" d="M604.87,206.28c0,4.4-2.87,6.6-8.61,6.6c-7.23,0-13.01-2.28-17.33-6.86c-3.38-3.55-5.31-7.33-5.78-11.35
	l-1.18-9.7c-0.79-6.15-2.22-10.45-4.3-12.89c-2.08-2.44-5.45-3.62-10.08-3.55v26.85c0,6.23,0.04,9.58,0.12,10.05
	c0,1.34,0.55,2.27,1.65,2.78c1.1,0.51,3.18,0.77,6.25,0.77c1.89,0,2.83,0.35,2.83,1.06c0,0.63-0.47,0.94-1.42,0.94h-11.44h-1.89
	c-1.42,0-2.75,0-4.01,0h-8.49c-0.79,0-1.69,0-2.71,0c-0.87,0-1.42,0-1.65,0h-5.43c-1.1,0-1.65-0.28-1.65-0.84
	c0-0.63,1.61-1.02,4.83-1.16c2.67-0.16,4.25-0.79,4.72-1.89c0.24-0.55,0.35-2.21,0.35-4.97v-60.91c0-4.1-0.08-6.52-0.24-7.27
	c-0.16-0.75-0.67-1.32-1.53-1.72c-1.1-0.47-2.87-0.71-5.31-0.71c-1.73,0-2.59-0.36-2.59-1.07c0-0.55,0.35-0.89,1.06-1
	c0.71-0.12,2.59-0.18,5.66-0.18h2.12c1.41,0,2.79,0,4.13,0h3.89c0.08,0,0.9,0,2.48,0c1.49,0,2.91,0,4.25,0h6.84
	c11.01,0,18.51,0.87,22.52,2.59c3.14,1.34,5.66,3.38,7.55,6.13c1.89,2.75,2.83,5.78,2.83,9.08c0,7.55-3.93,13.13-11.79,16.74
	c-3.46,1.57-8.57,2.75-15.33,3.54l-0.12,0.71c8.57,0.55,14.78,2.81,18.63,6.78c3.85,3.97,6.17,10.4,6.96,19.28
	c0.63,7.07,1.61,11.5,2.95,13.27c1.34,1.77,2.71,2.65,4.13,2.65c1.18,0,1.77-0.31,1.77-0.94c0-0.31-0.45-0.74-1.36-1.3
	c-0.9-0.55-1.36-1.34-1.36-2.36c0-2.12,1.18-3.18,3.54-3.18S604.87,203.61,604.87,206.28z M575.03,146.73
	c0-10.14-4.01-15.21-12.03-15.21c-2.59,0-4.21,0.87-4.83,2.59c-0.39,1.1-0.59,5.39-0.59,12.85v19.58c6.13,0.08,10.57-1.45,13.33-4.6
	C573.65,158.8,575.03,153.73,575.03,146.73z"/>
<g>
	<path class="st3" d="M159.3,83.19l-0.09,1.56c0,0.31-0.15,2.23-0.46,5.77c-0.24,2.69-0.37,4.76-0.37,6.22
		c0,1.83,0.03,3.36,0.09,4.58c0.06,0.43,0.09,0.95,0.09,1.56c0,0.67-0.15,1.01-0.46,1.01c-0.31,0-0.64-0.31-1.01-0.91
		c-1.34-2.2-2.78-3.63-4.3-4.3c-4.58,3.91-9.49,5.86-14.74,5.86c-8,0-15.04-2.99-21.15-8.97c-6.47-6.35-9.7-14.34-9.7-23.98
		c0-9.34,2.91-17.13,8.74-23.39c5.83-6.25,13.1-9.38,21.83-9.38c4.03,0,7.63,0.92,10.8,2.75c1.83,1.04,3.17,1.56,4.03,1.56
		c1.28,0,2.47-0.58,3.57-1.74c0.79-0.85,1.28-1.28,1.46-1.28c0.24,0,0.37,0.21,0.37,0.64c0,0.18-0.03,0.46-0.09,0.82
		c-0.37,2.08-0.55,4.64-0.55,7.69c0,0.31,0.03,1.56,0.09,3.75c0,2.14,0,3.57,0,4.3v2.01c0,1.1-0.31,1.65-0.92,1.65
		c-0.49,0-0.98-1.19-1.46-3.57c-2.2-10.98-7.23-16.48-15.1-16.48c-6.22,0-10.74,4.03-13.55,12.08c-1.95,5.49-2.93,12.08-2.93,19.77
		c0,11.41,2.32,19.77,6.96,25.08c2.44,2.81,5.64,4.21,9.61,4.21c8.6,0,14.25-5.73,16.93-17.21c0.43-1.89,0.92-2.84,1.46-2.84
		C159.09,82,159.36,82.4,159.3,83.19z"/>
</g>
</svg>
